/* XPM */
static char *result[] = {
/* columns rows colors chars-per-pixel */
"32 32 62 1 ",
"  c #70A853",
". c #529740",
"X c #312C34",
"o c #808080",
"O c gray46",
"+ c gray58",
"@ c gray34",
"# c #494949",
"$ c #434343",
"% c #585858",
"& c #747474",
"* c gray32",
"= c #464646",
"- c #515151",
"; c #535353",
": c gray30",
"> c #3F3F3F",
", c #4C4C4C",
"< c #3E3E3E",
"1 c #818181",
"2 c #626262",
"3 c gray42",
"4 c #565656",
"5 c #4B4B4B",
"6 c #444444",
"7 c gray36",
"8 c gray27",
"9 c #777777",
"0 c #373737",
"q c #6C6C6C",
"w c #505050",
"e c gray31",
"r c gray29",
"t c gray24",
"y c #5A5A5A",
"u c gray38",
"i c gray40",
"p c gray26",
"a c #393939",
"s c #4E4E4E",
"d c #555555",
"f c gray25",
"g c gray28",
"h c #6F6F6F",
"j c gray22",
"k c gray23",
"l c gray19",
"z c #414141",
"x c #2D2D2D",
"c c #2F2F2F",
"v c #848484",
"b c gray20",
"n c #2C2C2C",
"m c #606060",
"M c #3A3A3A",
"N c #323232",
"B c gray43",
"V c #313131",
"C c #343434",
"Z c gray18",
"A c #8E8E8E",
"S c #9A9A9A",
/* pixels */
"                                ",
"                                ",
"                                ",
"             .            .     ",
"            . .          . .    ",
" XXXXXXXXXXXXXXXXXXXXXXXXXXXXX  ",
" oOo+OOo+++ooOo++oOOOooOooOOo+X ",
" XXXXXXXXXXXXXXXXXXXXXXXXXXXXoX ",
" @@#$%X&%*%#=***-;;:=>=**-,<XoX ",
" 12$$2X3*%*$=:-:4;5>>6>57-*:XoX ",
" 332$*X%%>$*==8=8>>7---5>8=<X9X ",
" &&*%#X0000006>6>q2werett$#<X9X ",
" 1&%%>XXXXXXX=8=8yy7---5>8=<X9X ",
" 1&%*$X%3O3uX>8>-iqyewe5tppaXoX ",
" 13**#X#222@X0y>-wswerettr8aXoX ",
" &%$$#X2O2O1X0r05r:w:=:d5a86X*X ",
" &32$*X%323uX00>000::5:8fatgX2X ",
" 1%%%hX#2O2@XXXXXXXe5$5jj>klXoX ",
" 3@#$%X2O2O1X%3O%hX>a0a5zjxcXoX ",
" &1$$2X2O2O1Xu&uuvX0yeyz<0bnX9X ",
" 132$*X%323uXumu%+X0***$MN0NXoX ",
" 1&*%#X#2O2@X%m&uBX000000VVcX9X ",
" 3O%%hX2O2O1Xu%u%+XXXXXXXlCcX9X ",
" &u#uOX*O%O3X%o&uBX%*3*uXNlZXAX ",
" 3um%hXXXXXXXXXXXXXXXXXXXXXXX9X ",
" AASAAASSASAS9S9AA99ASA99ASAA9X ",
" XXXXXXXXXXXXXXXXXXXXXXXXXXXXXX ",
"                      . .       ",
"                       .        ",
"                                ",
"                                ",
"                                "
};
