/* XPM */
static char *result[] = {
/* columns rows colors chars-per-pixel */
"32 32 2 1 ",
"  c #70A853",
". c #529740",
/* pixels */
"                                ",
"                                ",
"                                ",
"             .            .     ",
"            . .          . .    ",
"             .            .     ",
"       .                        ",
"      . .                       ",
"       .                        ",
"                                ",
"                                ",
"                                ",
"                                ",
"                                ",
"            .          .        ",
"           . .        . .       ",
"  .         .          .        ",
" . .                            ",
"  .                             ",
"                                ",
"                                ",
"                                ",
"                                ",
"                 .              ",
"     .          . .             ",
"    . .          .              ",
"     .                 .        ",
"                      . .       ",
"                       .        ",
"                                ",
"                                ",
"                                "
};
