/* XPM */
static char *ba726d4f18384e90e0a90c3fa53a62dcyyCLAagLZsGY0FYx[] = {
/* columns rows colors chars-per-pixel */
"32 32 129 2 ",
"   c #70A853",
".  c #529740",
"X  c #312C34",
"o  c #808080",
"O  c gray46",
"+  c gray58",
"@  c #302B33",
"#  c #302B32",
"$  c #2F2A32",
"%  c gray49",
"&  c gray48",
"*  c #797979",
"=  c gray47",
"-  c #6D6D6D",
";  c #767575",
":  c #7B7B7B",
">  c #7C7C7C",
",  c gray50",
"<  c #6A6A6A",
"1  c #6F6F6E",
"2  c #717171",
"3  c #737273",
"4  c #727272",
"5  c #6E6E6D",
"6  c gray44",
"7  c #737372",
"8  c gray45",
"9  c #747474",
"0  c #757576",
"q  c #747373",
"w  c #70706F",
"e  c #6F6F70",
"r  c #6F6F6F",
"t  c #6F7070",
"y  c #707071",
"u  c #706F6F",
"i  c #686868",
"p  c #686767",
"a  c gray42",
"s  c gray43",
"d  c #6E6D6D",
"f  c #6F6E6E",
"g  c #6C6C6C",
"h  c #6B6A6A",
"j  c #6A6969",
"k  c DimGray",
"l  c #777777",
"z  c #676767",
"x  c #656565",
"c  c #6D6D6C",
"v  c #696868",
"b  c #696968",
"n  c #6B6B6C",
"m  c #6B6B6A",
"M  c #6A6A69",
"N  c #656666",
"B  c #646464",
"V  c #807F7F",
"C  c #676766",
"Z  c #6B6C6C",
"A  c #6D6C6D",
"S  c #6C6B6B",
"D  c gray40",
"F  c #656465",
"G  c #6A6B6A",
"H  c gray39",
"J  c #626262",
"K  c #626263",
"L  c #6F6E6F",
"P  c #686768",
"I  c #646363",
"U  c #666667",
"Y  c #696A69",
"T  c #626363",
"R  c #6FA752",
"E  c #676667",
"W  c #666565",
"Q  c #646364",
"!  c #666767",
"~  c #696A6A",
"^  c #686969",
"/  c #666766",
"(  c #636464",
")  c #646465",
"_  c #6EA651",
"`  c #666566",
"'  c #656566",
"]  c #676666",
"[  c #656464",
"{  c #686869",
"}  c #636362",
"|  c gray32",
" . c #656665",
".. c #666665",
"X. c #656564",
"o. c #646564",
"O. c #6DA651",
"+. c #646565",
"@. c #6DA550",
"#. c #717172",
"$. c #636462",
"%. c #676768",
"&. c #626261",
"*. c #646463",
"=. c gray38",
"-. c #6CA44F",
";. c #636262",
":. c #626162",
">. c #606060",
",. c #6BA44F",
"<. c #6A696A",
"1. c #686867",
"2. c #616261",
"3. c #616262",
"4. c #616162",
"5. c #605F60",
"6. c #676867",
"7. c #636463",
"8. c #8E8E8E",
"9. c #5F5F5F",
"0. c #6C6C6B",
"q. c #6B6C6B",
"w. c #696869",
"e. c #69696A",
"r. c #8D8D8D",
"t. c #9A9A9A",
"y. c gray60",
"u. c #767676",
"i. c gray55",
/* pixels */
"                                                                ",
"                                                                ",
"                                                                ",
"                          .                         .           ",
"                        .   .                     .   .         ",
"  X X X X X X X X X X X X X X X X X X X X X X X X X X X X X     ",
"  o O o + O O o + + + o o O o + + o O O O o o O o o O O o + X   ",
"  X X X @ # $ $ # @ @ X X X X X X X X X X X X X X X X X X o X   ",
"  o % & * = - ; = * * & & : : > > > : & * & : : : : > , o o X   ",
"  < 1 2 3 4 5 6 7 8 8 8 9 O 0 O q 4 2 6 w e r t y 6 6 u o o X   ",
"  i p a s r 5 - s s d - s r 6 6 f g a < h j k k i i i a , l X   ",
"  z x < c c g a < j v b < n c - g m < M k i z N B B B j V l X   ",
"  C C Z A S < k p D x F D k a a G < G < k i i F H J K F o l X   ",
"  J i - L Z k P D F I H B U g a < < < Y v i i x T J J J o o X   ",
"R B D i k k i E W B Q Q B ! ~ < k ^ v i z z / ( H J H ) o o X   ",
"_ ` ' ` U z ] D W [ B Q B ` P { p z ] D D N N W H } B < , | X   ",
"_ g E  .D ` ..x x X.B B B x E z D x ' D D x ` o.B ( x g , J X   ",
"O.6 < z D N ..x B x o.B B X.x ..x W D D D ' F x X.+.x g , o X   ",
"@.#.a i z z D D ` [ $.H I B B [ W E E p E D x x B B (  .o o X   ",
"@.4 g k i i %.E D J &.J J H *.x ] E P P %.E W *.H T J =.o l X   ",
"-.4 a b i i P z D B } J J J H B ` z v { i z ` Q ;.J :.>.o o X   ",
",.6 <.z 1.i P z D B H J 2.J T B x ] P i i z D B ;.3.4.5.o l X   ",
"-.- U D D z %.E D x H H J 3.K H X.` ] P %.z D B H J J J o l X   ",
"O.6.7.T B ` E z z z x B B B B B x ` E z z x D ! I >.J x o 8.X   ",
"  ) 2.2.9.z k < g 0.a a < q.m a a a h S w.z e.1. .;.} x o l X   ",
"  8.r.t.8.8.8.t.t.r.y.r.y.u.y.u.i.i.u.u.8.t.8.l l r.t.8.8.l X   ",
"  X X X X X X X X X X X X X X X X X X X X X X X X X X X X X X   ",
"                                            .   .               ",
"                                              .                 ",
"                                                                ",
"                                                                ",
"                                                                "
};
