/* XPM */
static char *result[] = {
/* columns rows colors chars-per-pixel */
"32 32 29 1 ",
"  c #70A853",
". c #343B00",
"X c #525F02",
"o c #81850B",
"O c #529740",
"+ c #93AC3E",
"@ c #A1C563",
"# c #640A0E",
"$ c #9D894E",
"% c #971E2A",
"& c #433C2F",
"* c #FA6B73",
"= c #E53A52",
"- c #685F41",
"; c #979799",
": c #9FA457",
"> c #2F2F2F",
", c #887F61",
"< c #5E5E5F",
"1 c #D2D2D6",
"2 c gray45",
"3 c gray58",
"4 c white",
"5 c #515151",
"6 c #B4B4B4",
"7 c #766447",
"8 c #464727",
"9 c #92845A",
"0 c #665B4B",
/* pixels */
"                                ",
"                                ",
"            .......             ",
"          ..XXoooXX..     O     ",
"         .Xoo+++++ooX.   O O    ",
"        .Xo+++++++++oX.   O     ",
"       O.o+++@@@@@+++o.         ",
"      O.Xo++@@@@@@@++oX.        ",
"   ..  .o++@@@@@@@@@++o.  ..    ",
"  .o+X..o+@@@@@@@@@@@+o..X+o.   ",
"   .o+o.o+@@@@@@@@@@@+o.o+o.    ",
"    .Xo.o+@@@@@@@@@@@+o.oX.     ",
"     .X.o#$@@@@@@@@@$#o.X.      ",
"      ..X%%%$@@@@@$%%%X..       ",
"       .X%&*=%@@@%=*=%X.        ",
"        .&-&%;@@@:%=%o. O       ",
"  O   >>>&,<<1;@@@@+o.>>>       ",
" O O >23&-,;;4;+++oX.5222>      ",
"  O >236&,;;;4;.....526332>     ",
"    >533&,<;14;22325>53325>     ",
"     >5&,-&<4;3336632>55>78     ",
"    >53&,&21;25552332>>8778     ",
"    >23&-&>;5523255>>>  88      ",
"     8799855>>555>>525>         ",
"     807782625666523625>        ",
"    O 888536>23632>>635>        ",
"     O   >3>5>232>25>6>O        ",
"          >777>>>3635>O O       ",
"           888  09978  O        ",
"                09998           ",
"                                ",
"                                "
};
