/* XPM */
static char *result[] = {
/* columns rows colors chars-per-pixel */
"32 32 5 1 ",
"  c #70A853",
". c #529740",
"X c #5F5226",
"o c #FDE07E",
"O c #D7B84D",
/* pixels */
"                                ",
"                                ",
"                                ",
"             .            .     ",
"            . .          . .    ",
"             .  XXX       .     ",
"       .       XoooX            ",
"      . .      XOOOX            ",
"       .    XXXXoooXXXX         ",
"           XoooXOOOXoooX        ",
"           XOOOXoooXOOOX        ",
"     XXX   XoooXOOOXoooX        ",
"    XoooX  XOOOXoooXOOOX        ",
"    XOOOX XXXooXOOOXXXoX        ",
"    XoooXXoooXOXXXXoooXXX       ",
"  XXXOOXXXOOOXXoooXOOOXooX      ",
" XooXoXoooXooXXOOOXoooXOOX      ",
" XOOXOXOOOXOOXXoooXOOOXooXXXX   ",
"  XXXXXoooXXXXXXXOXoooXOOXoooX  ",
" XXXooXOOOXoooXOOXXOOOXooXOOOX  ",
"XoooXOXoooXOOOXooXXoooXOOXXXXXX ",
"XOOOXoXOOOXoooXXXXXOOOXXXoooXooX",
"XoooXOXoooXOOXoooXXXXXoooXOOXOOX",
"XOOOXXXOOOXXXXOOOXoooXOOOXooXXX ",
" XXX . XXX   XoooXOOOXoooXOOX   ",
"    . .      XOOOXXXXXOOOXXX    ",
"     .       XXXX     XXX       ",
"                      . .       ",
"                       .        ",
"                                ",
"                                ",
"                                "
};
