/* XPM */
static char *_d90ef7542bc467ed886be56c2f0824fgpzvpY4nxAdxxD1P[] = {
/* columns rows colors chars-per-pixel */
"32 32 29 1 ",
"  c #70A853",
". c #529740",
"X c #70A752",
"o c #70A753",
"O c #71A853",
"+ c #73A954",
"@ c #74A953",
"# c #72A853",
"$ c #73A853",
"% c #70A652",
"& c #6FA551",
"* c #6FA350",
"= c #76A953",
"- c #6FA451",
"; c #74AA54",
": c #5F5226",
"> c #76AA55",
", c #86AB52",
"< c #7EAE57",
"1 c #6E9F4E",
"2 c #7DAD57",
"3 c #FDE07E",
"4 c #84AB52",
"5 c #81AB52",
"6 c #D7B84D",
"7 c #72A954",
"8 c #6FA552",
"9 c #53933E",
"0 c #77AB55",
/* pixels */
"                                ",
"                                ",
"                                ",
"             .            .     ",
"            . .          . .    ",
"             .  X         .     ",
"       .       oOO+             ",
"      . .      X@@#X            ",
"       .     Xo  OO   X         ",
"           XOO   O$XOOOX        ",
"           o                    ",
"     o %          O& O o        ",
"    %O +&  *O#=-;  %            ",
"     =    :::>  O=,:::<1        ",
"      +2X:333:4::::333:::       ",
"  X&o 5:::666::333:666:33:      ",
" X.  7:333:33::666:333:66:      ",
" .O.  :666:66::333:666:33:8 %   ",
"  9X  :333:::::::6:333:66:   o  ",
" % o O:666:333:66::666:33:O  o  ",
"-OO7 =:333:666:33::333:66:&  X  ",
"X  # >:666:333:::::666:::0      ",
"%+O;  :333:66:333:::::333:#    o",
"%OOO %:666::::666:333:666:7  X  ",
" X%8 . :::   :333:666:333:# X   ",
"    . .      :666:::::666:%     ",
"     .       ::::     :::       ",
"                      . .       ",
"                       .        ",
"                                ",
"                                ",
"                                "
};
