/* XPM */
static char *a65731dab85b4a31b945ca2c92cafe3esQbew4Qa8K7t5k9G[] = {
/* columns rows colors chars-per-pixel */
"32 32 30 1 ",
"  c #70A853",
". c #529740",
"X c #5F5226",
"o c #FDE07E",
"O c #D7B84D",
"+ c #70A753",
"@ c #70A652",
"# c #71A853",
"$ c #73A954",
"% c #6FA551",
"& c #76A953",
"* c #6FA451",
"= c #7DAD57",
"- c #70A752",
"; c #81AB52",
": c #7BAC56",
"> c #7AAA52",
", c #6FA250",
"< c #53933E",
"1 c #6FA351",
"2 c #74AA54",
"3 c #77AB55",
"4 c #77A953",
"5 c #72A954",
"6 c #7FAA52",
"7 c #72A853",
"8 c #7FAE58",
"9 c #6FA350",
"0 c #6EA04F",
"q c #6FA552",
/* pixels */
"                                ",
"                                ",
"                                ",
"             .            .     ",
"            . .          . .    ",
"             .  XXX       .     ",
"       .       XoooX            ",
"      . .      XOOOX            ",
"       .    XXXXoooXXXX         ",
"           XoooXOOOXoooX        ",
"           XOOOXoooXOOOX        ",
"     + @   XoooXOOOXoooX        ",
"    @# $%  XOOOXoooXOOOX        ",
"     &  * XXXooXOOOXXXoX        ",
"      $=XXoooXOXXXXoooXXX       ",
"  -%+ ;XXXOOOXXoooXOOOXooX      ",
" -.  :XoooXooXXOOOXoooXOOX      ",
" .#. >XOOOXOOXXoooXOOOXooX,,*   ",
"  <- 1XoooXXXXXXXOXoooXOOX2  +  ",
" @ + 3XOOOXoooXOOXXOOOXooX4 #+  ",
"*##5 6XoooXOOOXooXXoooXOOXXXX-  ",
"-  7 8XOOOXoooXXXXXOOOXXXoooX# +",
"@$#2 7XoooXOOXoooXXXXXoooXOOX7 9",
"@### ,XOOOXXXXOOOXoooXOOOXooX0, ",
" -@q . XXX   XoooXOOOXoooXOOX   ",
"    . .      XOOOXXXXXOOOXXX    ",
"     .       XXXX     XXX       ",
"                      . .       ",
"                       .        ",
"                                ",
"                                ",
"                                "
};
