/* XPM */
static char *result[] = {
/* columns rows colors chars-per-pixel */
"32 32 16 1 ",
"  c #70A853",
". c #323234",
"X c #545456",
"o c #767678",
"O c #979799",
"+ c #529740",
"@ c #B7B7BB",
"# c #D2D2D6",
"$ c #A77E5D",
"% c #8B5E4A",
"& c #534721",
"* c #77584A",
"= c #8F7772",
"- c #A48D87",
"; c #B7A099",
": c #705654",
/* pixels */
"                                ",
"          .......               ",
"        ..XXoooXX..             ",
"       .XooOOOOOooX.      +     ",
"      .XoOOO@@@OOOoX.    + +    ",
"     .XoOOO@@@@@OOOoX.    +     ",
"    .XoOOO@@@@@@@OOOoX.         ",
"    .ooOOO@@@@@@@OOOoo.         ",
"   .XoOOOOO@@@@@OOOOOoX.        ",
"   .XoOOOOOOOOOOOOOOOoX.    O   ",
"   .XoOOOOOOOOOOOOOOOoX.   OO   ",
"  .o.XoOOOOOOOOOOOOOoX.o. O#O   ",
"  .o.XooOOOOOOOOOOOooX.o.O##O   ",
"  .X.XXoooOOOOOOOoooXX.X.O##O   ",
"  ...XXXoooooooooooXXX...###O   ",
"   .XXXXXXoooooooXXXXXX.O##O    ",
"  +.XoXXXXXXXXXXXXXXXoX.O##O    ",
" + ..XooXXXXXXXXXXXooX.O##O     ",
"  ..X..XoooOOOOOoooX..X.##O     ",
"  .oO@O...XXXXXXX...O@Oo.O      ",
"  .XoOOX.XoooooooX.o@@@X.O      ",
"  ..XXX.ooOOOOOOOoo..XooX..     ",
"  ..Xoo.XooOOOOOooX.oO@$%&X.    ",
"  .o&%%&.XXoooooXX...o$$%&.     ",
"  .o&&&.X...XXX...X..&%%*&      ",
"  .o&&.Xo@=-;-;-=@oX. &&&       ",
"  .oX&.XO@-:::::=@OX.  +        ",
"   .oX&.O-;-&&&:::O.  + +       ",
"    .oXX.oOO..&%%%&    +        ",
"     ...&%$$*  &&&              ",
"        &$$$*                   ",
"                                "
};
