/* XPM */
static char *result[] = {
/* columns rows colors chars-per-pixel */
"32 32 19 1 ",
"  c #70A853",
". c #323234",
"X c #545456",
"o c #767678",
"O c #979799",
"+ c #529740",
"@ c #B7B7BB",
"# c white",
"$ c #2E1E22",
"% c #D2D2D6",
"& c #D7906E",
"* c #EEBE93",
"= c #FFE1AF",
"- c #534721",
"; c #9D704C",
": c #6E5E2C",
"> c #8B5E4A",
", c #A77E5D",
"< c #77584A",
/* pixels */
"                                ",
"              .......           ",
"            ..XXoooXX..         ",
"           .XooOOOOOooX.  +     ",
"          .XoOOO@@@OOOoX.+ +    ",
"         .XoOOO@@@@@OOOoX.+     ",
"       +.XoOOO@@@@@@@OOOoX.     ",
"      + .ooOOO@@@@@@@OOOoo.     ",
"       .XoOOOOO@@@@@OOOOOoX.    ",
" O     .Xo..XooOOOOOooX..oX.    ",
" OO    .X.XO..XXXXXXX..OX.X.    ",
" O#O  .o.XooOO@@@@@@@OOooX.o.   ",
" O##O .o.XX$XooOOOOOooX$XX.o.   ",
" O##@ .X.XOX$$$$$$$$$$$XOX.X.   ",
" O%#%O...XoOX$$$$$$$$$XOoX...   ",
"  O##O ...XoOO@@@@@@@OOoX...    ",
"  O%#@ .XX..XooOOOOOooX..XX.    ",
" + O#%O .Xo.&*=======*&.oX.     ",
"  +O%%O.o...-;&*****&;-...o...  ",
"    O%%OOO@oX---------XO...Xo.  ",
"    O%%O..OX.XoOoooOo...o@OoX.  ",
"    .O%%XX..oO@@OOO@@.O@@o-:X.  ",
"   .XXX.....oOOoXXXoO.O:-:-:X.  ",
"    ...--  ...XXoOoXX.O:-:OoX.  ",
"     +    .XoX..XXX...O@@@oXX.  ",
"    + +  .Xo@OoX@@@Xo.O@@o-:X.  ",
"     +   .XO@..oO@Oo..O:-:-:X.  ",
"          .@.Xo.oOo.X.o@-:-:X.  ",
"           .XO@O...>>>.o@:-X.   ",
"            ->,,<  --- .oOo.    ",
"            -,,,<       ...     ",
"                                "
};
