/* XPM */
static char *result[] = {
/* columns rows colors chars-per-pixel */
"32 32 18 1 ",
"  c #70A853",
". c #323234",
"X c #545456",
"o c #767678",
"O c #979799",
"+ c #529740",
"@ c #B7B7BB",
"# c #2E1E22",
"$ c #FFE1AF",
"% c #534721",
"& c #D7906E",
"* c #EEBE93",
"= c #9D704C",
"- c #D2D2D6",
"; c #6E5E2C",
": c #8B5E4A",
"> c #A77E5D",
", c #77584A",
/* pixels */
"                                ",
"               .......          ",
"             ..XXoooXX..        ",
"            .XooOOOOOooX. +     ",
"           .XoOOO@@@OOOoX. +    ",
"          .XoOOO@@@@@OOOoX.     ",
"       + .XoOOO@@@@@@@OOOoX.    ",
"      + +.ooOOO@@@@@@@OOOoo.    ",
"       +.XoOOOOO@@@@@OOOOOoX.   ",
"        ..XoOOoo...oOOOOOOoX.   ",
"       .XO.XXXXXOOo.oOOOOOoX.   ",
"       .XoOO@@@@@@Oo.XXoOooX.   ",
"        .XooOOOOo#@oX@OXoooX.   ",
"       ..########X@X@XXO.oXX.   ",
"       .X#######X@OXO..o.XXX.   ",
"        .XoOOO@@@OX.O..X.XXX.   ",
"  +      ..XooOOoX$..oX.XXX.    ",
" + +       %&*$$$$$.X..XXX.     ",
"  +OOOOOO   %=&&***.XoXXXX.     ",
"    O----OO  ....%%%.Xo@OoX.    ",
"     OO----O..Xoo..........     ",
"       OO---..X%O@@@.@OX.       ",
"         OO-..X%;%;@.oOX.       ",
"           O..Xo;%;@..o.        ",
"     +       .XoO@@@.o.         ",
"    + +      .X%oO@@.X.         ",
"     +       .X%;%;@...+        ",
"            %.X%;%@o.X% +       ",
"            %:.%;Oo.>>,%        ",
"             %.oOo.>>>:%        ",
"               ... %%%%         ",
"                                "
};
