/* XPM */
static char *result[] = {
/* columns rows colors chars-per-pixel */
"32 32 19 1 ",
"  c #70A853",
". c #323234",
"X c #545456",
"o c #767678",
"O c #979799",
"+ c #529740",
"@ c #B7B7BB",
"# c #2E1E22",
"$ c #FFE1AF",
"% c #EEBE93",
"& c #D7906E",
"* c #534721",
"= c #9D704C",
"- c #D2D2D6",
"; c white",
": c #6E5E2C",
"> c #8B5E4A",
", c #A77E5D",
"< c #77584A",
/* pixels */
"                                ",
"            .......             ",
"          ..XXoooXX..           ",
"         .XooOOOOOooX.    +     ",
"        .XoOOO@@@OOOoX.  + +    ",
"       .XoOOO@@@@@OOOoX.  +     ",
"      .XoOOO@@@@@@@OOOoX.       ",
"      .ooOOO@@@@@@@OOOoo.       ",
"     .XoOOOOO@@@@@OOOOOoX.      ",
"     .XoOOOOOOo...ooOOoX..      ",
"     .XoOOOOOo.oOOXXXXX.OX.     ",
"     .XooOoXX.oO@@@@@@OOoX.     ",
"     .XoooXO@Xo@#oOOOOooX.      ",
"     .XXo.OXX@X@X########..     ",
"     .XXX.o..OXO@X#######X.     ",
"     .XXX.X..O.XO@@@OOOoX.      ",
"  +   .XXX.Xo..$XoOOooX..       ",
" + +   .XXX..X.$$$$$%&*         ",
"  +    .XXXXoX.%%%&&=OOOOOO     ",
"      .XoO@oX.*****OO-;;;O.     ",
"       ......o.XoOO-;;;@OX.     ",
"         ..o.OXOO-;;;OO:*X.     ",
"         ..OXOO-;;;@O.@:oX.     ",
"        .X.Oo-;;;OOoX.@OoX.     ",
"     + *>,,XO;;@OXX...@O*X.     ",
"    + +*<,,XOX.@X@Oo..@:*X.     ",
"     +  *<>.XO.O.OOo..O:*X.     ",
"         **>.O..Xo>** .@*.      ",
"          *>>..*X>>,,*.Oo.      ",
"           ***  *<,,,* ..       ",
"                 ****           ",
"                                "
};
