/* XPM */
static char *result[] = {
/* columns rows colors chars-per-pixel */
"32 32 7 1 ",
"  c #70A853",
". c #529740",
"X c #2E6D31",
"o c #1F492B",
"O c #102619",
"+ c #618B4B",
"@ c #4A7E3D",
/* pixels */
"                                ",
"                                ",
"                                ",
"             .    XX      .     ",
"            . .  X.XX    . .    ",
"        XXXXXXXXX..XX   XXXX    ",
"      XX......X....XXX X..X     ",
"   XXX............XXXXX...XX    ",
"  XX XX..........XXXX...XXXXX   ",
"  X  X.......XX.XXXXX..XXXXXXX  ",
"   XX.......XXXXXXXXX.XXXXXXXX  ",
"  XX........XXXXXXXXXXXXXXoXXXX ",
"  X.........XXX......XXXXooXXXX ",
"  X.....XXXXXX.......ooXXooooo  ",
" XX...XXXXX..........oooXoooooo ",
" XXXXXXXXX........XXooooooooooo ",
" XXXXXXXX........Xoooooooooooo  ",
" .XXXXX........XXooooooooooooO  ",
"  XXXXX...XX..XXooooooooooooOO  ",
"  XXXXXXXXXooXXooooooOOooooOO   ",
"   OXooooooOooooooooOOOOoooOO   ",
"   OOoooooOOOooOOooOOOOooOOOO   ",
"   OOOooOOOOooooOOOOOOOOOOOO    ",
"    OOOOOOOOoOOOOOOOOOOOOOOO    ",
"  ++OOOOOOOOOOOOOOOOOOOOOOO++   ",
" +++@OOOOOOOOOOOOOOOOOOOO++++   ",
" ++++@+OOOOOOOOOOOOOOO+@+++++   ",
" +++++++++++++++++++++@+@+++    ",
"    ++++++++++++++++++ .        ",
"                                ",
"                                ",
"                                "
};
