/* XPM */
static char *_0051d2861c746af985b031bdef426001FGVouaOPu7qfZcD[] = {
/* columns rows colors chars-per-pixel */
"7 10 2 1 ",
"  c black",
". c white",
/* pixels */
"       ",
" ..... ",
" .  .. ",
" .  .. ",
" .  .. ",
" .  .. ",
" .  .. ",
" .  .. ",
" ..... ",
"       "
};
