/* XPM */
static char *_5229368768241cf9fcc1acd4cf677b4yUZeGj4VA0O8eXAx[] = {
/* columns rows colors chars-per-pixel */
"7 10 2 1 ",
"  c black",
". c white",
/* pixels */
"       ",
" ..... ",
"    .. ",
"    .. ",
" ..... ",
"    .. ",
"    .. ",
" ..... ",
" ..... ",
"       "
};
