/* XPM */
static char *result[] = {
/* columns rows colors chars-per-pixel */
"7 10 3 1 ",
"  c black",
". c white",
"X c None",
/* pixels */
"       ",
" ..... ",
" .     ",
" ..... ",
"    .. ",
"XX  .. ",
"    .. ",
" ..... ",
" ..... ",
"       "
};
