/* XPM */
static char *_88952455c24446dae87d546d0bb2288nBjTs0GUzTh4FPmh[] = {
/* columns rows colors chars-per-pixel */
"7 10 2 1 ",
"  c black",
". c white",
/* pixels */
"       ",
" ..... ",
" ..    ",
" ..... ",
" ..  . ",
" ..  . ",
" ..  . ",
" ..... ",
" ..... ",
"       "
};
