/* XPM */
static char *f5bb162d76394107ac0163692f36440dptekaKSfyPW1aeK3[] = {
/* columns rows colors chars-per-pixel */
"7 10 3 1 ",
"  c None",
". c black",
"X c white",
/* pixels */
".......",
".XXXXX.",
"....XX.",
"   .XX.",
"   .XX.",
"  ..XX.",
"  .XX..",
"  .XX. ",
"  .XX. ",
"  .... "
};
