/* XPM */
static char *result[] = {
/* columns rows colors chars-per-pixel */
"7 10 2 1 ",
"  c black",
". c white",
/* pixels */
"       ",
" ..... ",
" .  .. ",
" .  .. ",
" ..... ",
" .  .. ",
" .  .. ",
" .  .. ",
" ..... ",
"       "
};
