/* XPM */
static char *_069b5853e064ff5f1b92b03b0b77b14fvEbLKWjtTUbSVQV[] = {
/* columns rows colors chars-per-pixel */
"7 10 2 1 ",
"  c black",
". c white",
/* pixels */
"       ",
" ..... ",
" .  .. ",
" .  .. ",
" ..... ",
"    .. ",
"    .. ",
" ..... ",
" ..... ",
"       "
};
